<?xml version="1.0" standalone="no"?>
<!DOCTYPE svg PUBLIC "-//W3C//DTD SVG 20010904//EN"
 "http://www.w3.org/TR/2001/REC-SVG-20010904/DTD/svg10.dtd">
<svg version="1.0" xmlns="http://www.w3.org/2000/svg"
 width="20px" height="15px" viewBox="0 0 307.000000 277.000000"
 preserveAspectRatio="xMidYMid meet">

<g transform="translate(0.000000,277.000000) scale(0.100000,-0.100000)"
fill="#FFFFFF" stroke="none">
<path d="M1948 1961 c-20 -24 -43 -68 -57 -113 -25 -80 -79 -184 -108 -210
-26 -22 -42 -26 -189 -42 -159 -18 -286 -9 -395 28 -40 14 -75 23 -77 21 -2
-2 -1 -13 3 -24 6 -20 50 -37 180 -68 77 -18 360 -16 426 3 81 24 156 126 208
286 12 36 29 72 37 78 25 21 17 -46 -17 -137 -29 -79 -30 -85 -15 -108 9 -14
20 -25 24 -25 24 1 117 31 144 48 18 11 56 27 83 36 28 8 81 27 119 41 67 25
96 27 96 5 0 -5 -42 -30 -92 -54 -100 -48 -145 -85 -134 -112 5 -14 16 -15 82
-9 41 4 103 15 137 24 65 19 87 18 87 -3 0 -28 -43 -49 -158 -77 -63 -16 -82
-33 -60 -55 13 -14 23 -14 94 1 43 9 91 19 107 22 15 3 27 1 27 -5 0 -18 -27
-32 -86 -43 -99 -18 -170 -66 -133 -90 8 -5 46 -9 84 -10 39 0 81 -4 95 -8
l25 -7 -25 -14 c-14 -8 -61 -17 -105 -21 -98 -9 -123 -14 -203 -46 -109 -42
-203 -51 -467 -47 -245 5 -331 13 -397 39 -99 39 -121 51 -135 72 -8 12 -30
82 -48 155 -51 210 -75 278 -101 284 -37 9 -58 0 -73 -31 -14 -29 -14 -39 15
-250 l5 -40 -32 55 c-54 93 -153 243 -173 262 -40 37 -106 10 -106 -44 0 -16
66 -147 111 -222 10 -17 19 -35 19 -39 0 -16 -58 60 -84 110 -31 58 -67 98
-109 120 -26 13 -31 13 -48 -3 -13 -11 -19 -30 -19 -58 0 -33 -4 -43 -22 -51
-40 -18 -36 -73 12 -155 23 -39 54 -85 69 -103 71 -84 77 -105 10 -34 -41 42
-81 77 -90 77 -22 0 -49 -32 -49 -58 0 -11 17 -41 37 -65 21 -24 55 -65 76
-91 51 -62 172 -165 233 -197 28 -15 83 -31 129 -38 44 -7 96 -19 115 -26 19
-7 64 -16 100 -20 36 -4 85 -11 110 -17 66 -14 493 -45 521 -37 13 4 53 7 89
8 83 1 183 17 240 38 52 19 180 98 180 111 0 5 10 24 23 43 20 29 53 133 71
220 5 22 12 27 51 32 61 9 105 42 105 79 0 30 -9 36 -80 56 l-35 10 31 1 c45
1 93 20 104 41 16 31 11 68 -11 84 -20 14 -21 15 -4 44 22 37 14 75 -20 90
-20 9 -46 7 -126 -9 -56 -11 -104 -18 -106 -15 -5 5 122 66 137 66 14 0 50 47
50 67 0 25 -38 43 -91 43 -47 0 -197 -49 -284 -93 -33 -16 -68 -34 -77 -38
-27 -13 -28 1 -4 77 34 104 41 182 20 205 -25 27 -38 24 -76 -20z m-1203 -258
c14 -21 41 -60 60 -88 19 -27 46 -70 61 -95 53 -89 96 -119 123 -87 8 10 8 27
0 63 -20 93 -32 191 -25 218 8 34 34 34 42 -1 3 -16 14 -57 24 -93 11 -36 30
-110 44 -165 38 -155 33 -148 139 -198 135 -65 198 -75 499 -81 141 -2 270 -1
285 4 15 5 55 15 88 24 33 8 99 27 147 42 48 15 90 26 92 23 6 -6 -27 -123
-49 -173 -86 -200 -345 -269 -835 -221 -80 8 -170 19 -200 25 -30 6 -93 17
-140 26 -47 8 -110 22 -140 29 -30 8 -71 17 -92 20 -56 9 -181 98 -275 195
-96 100 -112 120 -113 138 0 25 21 10 92 -63 73 -77 99 -89 121 -54 15 24 -7
69 -67 138 -80 92 -90 105 -112 147 -40 74 5 90 58 21 81 -106 153 -187 165
-187 34 0 24 33 -24 83 -28 29 -65 74 -84 100 -19 26 -44 62 -56 79 -22 29
-32 88 -15 88 20 0 56 -38 105 -113 68 -102 100 -137 127 -137 30 0 26 47 -11
116 -18 33 -40 77 -51 99 -10 22 -23 48 -28 57 -15 26 -12 58 4 58 8 0 26 -17
41 -37z"/>
<path d="M1880 640 c0 -5 5 -10 10 -10 6 0 10 5 10 10 0 6 -4 10 -10 10 -5 0
-10 -4 -10 -10z"/>
<path d="M1351 594 c-23 -30 -27 -74 -9 -92 14 -14 54 -16 62 -3 3 4 17 6 31
3 26 -5 35 12 11 21 -8 3 -12 15 -9 30 12 62 -47 90 -86 41z m59 -22 c0 -37
-22 -67 -44 -59 -20 8 -21 36 0 65 22 31 44 28 44 -6z"/>
<path d="M1709 599 c-15 -15 -19 -30 -17 -62 3 -41 4 -42 38 -40 19 2 47 3 63
3 30 0 36 14 11 24 -11 4 -14 13 -11 27 3 12 2 32 -3 45 -12 30 -52 32 -81 3z
m59 -26 c4 -25 -31 -69 -46 -59 -17 10 -15 38 4 64 18 27 38 24 42 -5z"/>
<path d="M1878 587 c-8 -20 3 -87 13 -81 12 7 12 81 0 88 -5 3 -11 0 -13 -7z"/>
<path d="M1195 580 c-3 -5 -12 -7 -20 -3 -12 4 -15 -4 -15 -35 0 -55 14 -60
37 -15 24 48 41 53 49 14 4 -17 10 -34 15 -36 16 -11 19 15 5 50 -12 27 -21
35 -40 35 -14 0 -27 -4 -31 -10z"/>
<path d="M1555 579 c-4 -6 -13 -8 -21 -5 -11 4 -14 -5 -14 -39 0 -56 12 -57
33 -5 19 50 44 53 53 5 3 -19 10 -35 15 -35 15 0 10 58 -7 74 -18 18 -50 21
-59 5z"/>
</g>
</svg>
